{"accessors":[{"bufferView":3,"componentType":5126,"count":4224,"max":[253.9175567626953,233.9838104248047,390.70953369140625],"min":[-277.90997314453125,13.685779571533203,-324.9394226074219],"type":"VEC3"},{"bufferView":3,"byteOffset":50688,"componentType":5126,"count":4224,"max":[0.9989058375358582,1,0.9998145699501038],"min":[-0.9999646544456482,-1,-0.9998191595077515],"type":"VEC3"},{"bufferView":2,"componentType":5126,"count":4224,"max":[0.9989799857139587,0.9931399822235107],"min":[0.00698000006377697,0.00406000018119812],"type":"VEC2"},{"bufferView":2,"byteOffset":33792,"componentType":5126,"count":4224,"max":[0.9989799857139587,0.9931399822235107],"min":[0.00698000006377697,0.00406000018119812],"type":"VEC2"},{"bufferView":2,"byteOffset":67584,"componentType":5126,"count":4224,"max":[0.9989799857139587,0.9931399822235107],"min":[0.00698000006377697,0.00406000018119812],"type":"VEC2"},{"bufferView":2,"byteOffset":101376,"componentType":5126,"count":4224,"max":[0.9989799857139587,0.9931399822235107],"min":[0.00698000006377697,0.00406000018119812],"type":"VEC2"},{"bufferView":2,"byteOffset":135168,"componentType":5126,"count":4224,"max":[0.9989799857139587,0.9931399822235107],"min":[0.00698000006377697,0.00406000018119812],"type":"VEC2"},{"bufferView":2,"byteOffset":168960,"componentType":5126,"count":4224,"max":[0.9989799857139587,0.9931399822235107],"min":[0.00698000006377697,0.00406000018119812],"type":"VEC2"},{"bufferView":2,"byteOffset":202752,"componentType":5126,"count":4224,"max":[0.9989799857139587,0.9931399822235107],"min":[0.00698000006377697,0.00406000018119812],"type":"VEC2"},{"bufferView":1,"componentType":5125,"count":16818,"type":"SCALAR"},{"bufferView":3,"byteOffset":101376,"componentType":5126,"count":1641,"max":[113.97852325439453,199.8107147216797,380.7157897949219],"min":[-255.81423950195312,13.610770225524902,-7.78113317489624],"type":"VEC3"},{"bufferView":3,"byteOffset":121068,"componentType":5126,"count":1641,"max":[0.9618614315986633,0.9993417263031006,0.9951282143592834],"min":[-0.9533799290657043,-0.9991451501846313,-0.9981625080108643],"type":"VEC3"},{"bufferView":2,"byteOffset":236544,"componentType":5126,"count":1641,"max":[0.9960600137710571,0.5472699999809265],"min":[0.08485999703407288,0.00406000018119812],"type":"VEC2"},{"bufferView":1,"byteOffset":67272,"componentType":5125,"count":5208,"type":"SCALAR"},{"bufferView":3,"byteOffset":140760,"componentType":5126,"count":173,"max":[107.9041519165039,158.09359741210938,291.5523986816406],"min":[-213.5992889404297,16.546911239624023,2.8744442462921143],"type":"VEC3"},{"bufferView":3,"byteOffset":142836,"componentType":5126,"count":173,"max":[0.9377184510231018,0.9936647415161133,0.9954293966293335],"min":[-0.9012680649757385,-0.9937388896942139,-0.4951344430446625],"type":"VEC3"},{"bufferView":2,"byteOffset":249672,"componentType":5126,"count":173,"max":[0.5706300139427185,0.5404599905014038],"min":[0.01962999999523163,0.00989999994635582],"type":"VEC2"},{"bufferView":1,"byteOffset":88104,"componentType":5125,"count":504,"type":"SCALAR"},{"bufferView":3,"byteOffset":144912,"componentType":5126,"count":213,"max":[134.1580810546875,216.1202392578125,28.90809440612793],"min":[-83.46659088134766,149.2529296875,-105.8949966430664],"type":"VEC3"},{"bufferView":3,"byteOffset":147468,"componentType":5126,"count":213,"max":[0.9775733947753906,0.7704991102218628,0.7889578938484192],"min":[-0.9917503595352173,-0.7456203103065491,-0.7887539863586426],"type":"VEC3"},{"bufferView":2,"byteOffset":251056,"componentType":5126,"count":213,"max":[0.8665800094604492,0.8899400234222412],"min":[0.24062000215053558,0.44602999091148376],"type":"VEC2"},{"bufferView":1,"byteOffset":90120,"componentType":5125,"count":702,"type":"SCALAR"},{"bufferView":3,"byteOffset":150024,"componentType":5126,"count":456,"max":[200.0634002685547,137.6475830078125,293.8572998046875],"min":[-210.76551818847656,-2.0022900104522705,-272.0599365234375],"type":"VEC3"},{"bufferView":3,"byteOffset":155496,"componentType":5126,"count":456,"max":[0.9978637099266052,0.7823552489280701,0.9375877976417542],"min":[-0.9978290796279907,-0.7585203051567078,-0.9371675848960876],"type":"VEC3"},{"bufferView":4,"componentType":5126,"count":456,"max":[0.7394174337387085,0.9970827698707581,0.508084237575531,1],"min":[-0.7406612038612366,-0.9996346235275269,-0.5060980916023254,1],"type":"VEC4"},{"bufferView":2,"byteOffset":252760,"componentType":5126,"count":456,"max":[0.9921600222587585,0.618340015411377],"min":[0.593999981880188,0.0030799999367445707],"type":"VEC2"},{"bufferView":1,"byteOffset":92928,"componentType":5125,"count":2160,"type":"SCALAR"},{"bufferView":3,"byteOffset":160968,"componentType":5126,"count":1856,"max":[252.24937438964844,137.6475830078125,318.9646911621094],"min":[-262.9462890625,-2.0022900104522705,-297.1673278808594],"type":"VEC3"},{"bufferView":3,"byteOffset":183240,"componentType":5126,"count":1856,"max":[0.998879075050354,1,0.9592154622077942],"min":[-0.998879611492157,-1,-0.9580134153366089],"type":"VEC3"},{"bufferView":4,"byteOffset":7296,"componentType":5126,"count":1856,"max":[0.9614890813827515,1,0.9519342184066772,1],"min":[-0.9602437615394592,-0.9781704545021057,-0.9517271518707275,-1],"type":"VEC4"},{"bufferView":2,"byteOffset":256408,"componentType":5126,"count":1856,"max":[0.9785299897193909,0.9678199887275696],"min":[0.02157999947667122,0.02741999924182892],"type":"VEC2"},{"bufferView":1,"byteOffset":101568,"componentType":5125,"count":7680,"type":"SCALAR"},{"bufferView":5,"componentType":5126,"count":40,"max":[1,0.4226211607456207,0.4226211607456207,0,0.12961000204086304,1,1,0,0.5058913826942444,0.5933016538619995,1,0,130.31910705566406,175.91635131835938,323.4583740234375,1],"min":[-0.9901027083396912,-0.48120132088661194,-0.555961549282074,0,-0.12961000204086304,-0.6660900115966797,-0.7808899879455566,0,-0.7237719893455505,-0.9063124656677246,-0.9063124656677246,0,-129.0966033935547,-299.3075866699219,-324.1932067871094,1],"type":"MAT4"},{"bufferView":0,"componentType":5123,"count":4224,"type":"VEC4"},{"bufferView":4,"byteOffset":36992,"componentType":5126,"count":4224,"max":[1,0.4838699996471405,0.3225800096988678,0.1935500055551529],"min":[0.3225800096988678,0,0,0],"type":"VEC4"},{"bufferView":0,"byteOffset":33792,"componentType":5123,"count":1641,"type":"VEC4"},{"bufferView":4,"byteOffset":104576,"componentType":5126,"count":1641,"max":[1,0,0,0],"min":[1,0,0,0],"type":"VEC4"},{"bufferView":0,"byteOffset":46920,"componentType":5123,"count":173,"type":"VEC4"},{"bufferView":4,"byteOffset":130832,"componentType":5126,"count":173,"max":[1,0,0,0],"min":[1,0,0,0],"type":"VEC4"},{"bufferView":0,"byteOffset":48304,"componentType":5123,"count":213,"type":"VEC4"},{"bufferView":4,"byteOffset":133600,"componentType":5126,"count":213,"max":[1,0,0,0],"min":[1,0,0,0],"type":"VEC4"},{"bufferView":0,"byteOffset":50008,"componentType":5123,"count":456,"type":"VEC4"},{"bufferView":4,"byteOffset":137008,"componentType":5126,"count":456,"max":[1,0,0,0],"min":[1,0,0,0],"type":"VEC4"},{"bufferView":0,"byteOffset":53656,"componentType":5123,"count":1856,"type":"VEC4"},{"bufferView":4,"byteOffset":144304,"componentType":5126,"count":1856,"max":[1,0,0,0],"min":[1,0,0,0],"type":"VEC4"}],"asset":{"extras":{"author":"HarrisonHag1 (https://sketchfab.com/HarrisonHag1)","license":"CC-BY-4.0 (http://creativecommons.org/licenses/by/4.0/)","source":"https://sketchfab.com/3d-models/lightning-mcqueen-49aa703637474fc5a0a9d58cc0d02462","title":"Lightning Mcqueen"},"generator":"Sketchfab-12.66.0","version":"2.0"},"bufferViews":[{"buffer":0,"byteLength":68504,"byteStride":8,"name":"shortBufferViews","target":34962},{"buffer":0,"byteLength":132288,"byteOffset":68504,"name":"floatBufferViews","target":34963},{"buffer":0,"byteLength":271256,"byteOffset":200792,"byteStride":8,"name":"floatBufferViews","target":34962},{"buffer":0,"byteLength":205512,"byteOffset":472048,"byteStride":12,"name":"floatBufferViews","target":34962},{"buffer":0,"byteLength":174000,"byteOffset":677560,"byteStride":16,"name":"floatBufferViews","target":34962},{"buffer":0,"byteLength":2560,"byteOffset":851560,"name":"floatBufferViews"}],"buffers":[{"byteLength":854120,"uri":"data:application/octet-stream;base64,"}],"images":[{"uri":"data:application/octet-stream;base64,"},{"uri":"data:application/octet-stream;base64,"},{"uri":"data:application/octet-stream;base64,"},{"uri":"data:application/octet-stream;base64,"},{"uri":"data:application/octet-stream;base64,"},{"uri":"data:application/octet-stream;base64,"},{"uri":"data:application/octet-stream;base64,"}],"materials":[{"doubleSided":true,"emissiveFactor":[0.321109145188455,0.321109145188455,0.321109145188455],"emissiveTexture":{"index":2,"texCoord":2},"name":"2_blaster.blaster_0.1_16_16","pbrMetallicRoughness":{"baseColorTexture":{"index":0},"metallicFactor":0,"metallicRoughnessTexture":{"index":1,"texCoord":1}}},{"doubleSided":true,"name":"Material.002","pbrMetallicRoughness":{"roughnessFactor":0.22059628258212793}},{"doubleSided":true,"name":"Material.003","pbrMetallicRoughness":{"baseColorTexture":{"index":0},"metallicFactor":0,"roughnessFactor":0.6}},{"doubleSided":true,"name":"McQueen_Eyes","pbrMetallicRoughness":{"baseColorTexture":{"index":3},"metallicFactor":0,"roughnessFactor":0.6}},{"doubleSided":true,"name":"McQueen_Tires","normalTexture":{"index":6},"pbrMetallicRoughness":{"baseColorTexture":{"index":4},"metallicFactor":0,"metallicRoughnessTexture":{"index":5},"roughnessFactor":0.6}},{"doubleSided":true,"name":"Sun.001","normalTexture":{"index":6},"pbrMetallicRoughness":{"baseColorTexture":{"index":4},"metallicFactor":0,"metallicRoughnessTexture":{"index":5}}}],"meshes":[{"name":"Character_Mcqueen_MESH_1_0","primitives":[{"attributes":{"JOINTS_0":33,"NORMAL":1,"POSITION":0,"TEXCOORD_0":2,"TEXCOORD_1":3,"TEXCOORD_2":4,"TEXCOORD_3":5,"TEXCOORD_4":6,"TEXCOORD_5":7,"TEXCOORD_6":8,"WEIGHTS_0":34},"indices":9,"material":0,"mode":4}]},{"name":"Character_Mcqueen_MESH_1_1","primitives":[{"attributes":{"JOINTS_0":35,"NORMAL":11,"POSITION":10,"TEXCOORD_0":12,"TEXCOORD_1":12,"WEIGHTS_0":36},"indices":13,"material":1,"mode":4}]},{"name":"Character_Mcqueen_MESH_1_2","primitives":[{"attributes":{"JOINTS_0":37,"NORMAL":15,"POSITION":14,"TEXCOORD_0":16,"WEIGHTS_0":38},"indices":17,"material":2,"mode":4}]},{"name":"Character_Mcqueen_MESH_0","primitives":[{"attributes":{"JOINTS_0":39,"NORMAL":19,"POSITION":18,"TEXCOORD_0":20,"WEIGHTS_0":40},"indices":21,"material":3,"mode":4}]},{"name":"Character_Mcqueen_MESH_2","primitives":[{"attributes":{"JOINTS_0":41,"NORMAL":23,"POSITION":22,"TANGENT":24,"TEXCOORD_0":25,"TEXCOORD_1":25,"TEXCOORD_2":25,"TEXCOORD_3":25,"WEIGHTS_0":42},"indices":26,"material":4,"mode":4}]},{"name":"Character_Mcqueen_MESH_2","primitives":[{"attributes":{"JOINTS_0":43,"NORMAL":28,"POSITION":27,"TANGENT":29,"TEXCOORD_0":30,"TEXCOORD_1":30,"TEXCOORD_2":30,"WEIGHTS_0":44},"indices":31,"material":5,"mode":4}]}],"nodes":[{"children":[1],"matrix":[1,0,0,0,0,2.220446049250313e-16,-1,0,0,1,2.220446049250313e-16,0,0,0,0,1],"name":"Sketchfab_model"},{"children":[2,4,54,56,58,60],"name":"Root"},{"children":[3],"matrix":[-0.29086000000000006,0.9551700000000001,-0.05519000000000001,0,-0.7711,-0.19988000000000003,0.6045200000000001,0,0.5663900000000001,0.21839000000000003,0.7946700000000001,0,4.076250000000001,1.00545,5.903860000000001,1],"name":"Lamp"},{"name":"Lamp"},{"children":[5,46,47,48,50,52,53,45,49,51],"matrix":[0.009380000000000003,0.0034700000000000013,0,0,0,0,0.010000000000000002,0,0.0034700000000000013,-0.009380000000000003,0,0,0,0,0,1],"name":"Armature"},{"children":[6],"name":"Armature_rootJoint"},{"children":[7,8],"name":"McQueen_Race_Armature","rotation":[0,0.9762959480285645,0,0.21643993258476257],"scale":[1.0000027418136597,1,1.0000027418136597],"translation":[0,0,0.800000011920929]},{"name":"Character_Mcqueen_MESH_Armature","rotation":[0,0,0,1],"scale":[1,1,1],"translation":[0,0,0]},{"children":[9],"name":"Mcqueen_rig_all_Armature","rotation":[0,0,0,1],"scale":[1,1,1],"translation":[0,0,0]},{"children":[10],"name":"car_joints_Armature","rotation":[0,0,0,1],"scale":[1,1,1],"translation":[0,0,0]},{"children":[11,41,42,43,44],"name":"worldJoint_Armature","rotation":[0,0.4647681713104248,0,0.8854324221611023],"scale":[0.9999980330467224,1,0.9999980330467224],"translation":[0.000029999999242136255,0,0]},{"children":[12,13,36,40],"name":"frontJoint_Armature","rotation":[0,0,0,1],"scale":[1,1,1],"translation":[0,68.97364807128906,202.5903778076172]},{"name":"DnTeeth_J_Armature","rotation":[0,-0.4647681713104248,0,0.8854324221611023],"scale":[0.9999980330467224,1,0.9999980330467224],"translation":[-212.6292724609375,-10.861379623413086,-55.85335159301758]},{"children":[14,15,16,19,20,21,22,32,33,34,35],"name":"rootJoint_Armature","rotation":[0,-0.4647681713104248,0,0.8854324221611023],"scale":[0.9999980330467224,1,0.9999980330467224],"translation":[0,9.467840194702148,-202.5903778076172]},{"name":"botLidJoint_Armature","rotation":[0.37908419966697693,0,0,0.9253621697425842],"scale":[1,0.9999995231628418,0.9999995231628418],"translation":[-0.27327999472618103,81.84768676757812,87.2824478149414]},{"name":"DnLip_J_Armature","rotation":[0,0,0,1],"scale":[1,1,1],"translation":[0.000039999998989515007,-4.471370220184326,324.752197265625]},{"children":[17,18],"name":"eyeJoint_Armature","rotation":[0.33565255999565125,0.43007874488830566,-0.17618706822395325,0.8193459510803223],"scale":[0.9999961256980896,0.9999985694885254,1.0000011920928955],"translation":[58.3449592590332,96.01846313476562,40.50001907348633]},{"name":"L_eyeJoint_Armature","rotation":[0,-0.33118823170661926,0.3260713219642639,0.8854332566261292],"scale":[0.9999967217445374,1.0000063180923462,1.0000003576278687],"translation":[-39.514060974121094,-6.078939914703369,-8.28285026550293]},{"name":"R_eyeJoint_Armature","rotation":[0,-0.33118823170661926,0.3260713219642639,0.8854332566261292],"scale":[0.9999967217445374,1.0000063180923462,1.0000003576278687],"translation":[-71.92526245117188,-36.739681243896484,-40.98722839355469]},{"name":"L_DnLip_J_Armature","rotation":[0,0,0,1],"scale":[1,1,1],"translation":[33.751991271972656,-4.461730003356934,323.9815673828125]},{"name":"L_Lip_J_Armature","rotation":[0,0,0,1],"scale":[1,1,1],"translation":[65.32228088378906,-2.6243300437927246,317.7336120605469]},{"name":"L_UpLip_J_Armature","rotation":[0,0,0,1],"scale":[1,1,1],"translation":[33.75199890136719,2.24780011177063,324.18341064453125]},{"children":[23,24,28],"name":"lidJoint_Armature","rotation":[0.4332035183906555,0,0,0.9012961387634277],"scale":[1,1.0000009536743164,1.0000009536743164],"translation":[-0.1583700031042099,119.66610717773438,55.178619384765625]},{"name":"FurrowJoint_Armature","rotation":[0,0,0,1],"scale":[1,1,1],"translation":[-0.000019999999494757503,-0.000019999999494757503,4.038829803466797]},{"children":[25,26,27],"name":"L_lidJoint_Armature","rotation":[-0.023642297834157944,0.09981546550989151,-0.08335110545158386,0.9912267923355103],"scale":[1.0000005960464478,1.0000027418136597,1.000004768371582],"translation":[56.80897903442383,-4.822020053863525,-0.3849000036716461]},{"name":"L_edgeJoint_Armature","rotation":[0.0013163072289898992,0.07299929112195969,-0.01799340359866619,0.9971688985824585],"scale":[0.9999938011169434,1.000004529953003,0.9999991059303284],"translation":[47.53302001953125,-10.75590991973877,9.859979629516602]},{"name":"L_lidCurveJoint_Armature","rotation":[0,-0.054948098957538605,0,0.9984893202781677],"scale":[0.9999985694885254,1,0.9999985694885254],"translation":[0.000019999999494757503,0.00007000000186963007,3.796880006790161]},{"name":"L_midUpDownJoint_Armature","rotation":[0.023642297834157944,-0.09981546550989151,0.08335110545158386,0.9912267923355103],"scale":[1.0000005960464478,1.0000027418136597,1.000004768371582],"translation":[-33.419898986816406,-1.7307599782943726,-0.8176299929618835]},{"children":[29,30,31],"name":"R_lidJoint_Armature","rotation":[0.991226851940155,0.08335069566965103,0.09981497377157211,0.023642299696803093],"scale":[1.0000112056732178,1.000002384185791,1.0000041723251343],"translation":[-56.808990478515625,-4.822030067443848,-0.38492000102996826]},{"name":"R_edgeJoint_Armature","rotation":[0.0013163072289898992,0.07299929112195969,-0.01799340359866619,0.9971688985824585],"scale":[0.9999938011169434,1.000004529953003,0.9999991059303284],"translation":[-47.53263854980469,10.755889892578125,-9.859589576721191]},{"name":"R_lidCurveJoint_Armature","rotation":[0,-0.054948098957538605,0,0.9984893202781677],"scale":[0.9999985694885254,1,0.9999985694885254],"translation":[-0.000039999998989515007,0,-3.7969000339508057]},{"name":"R_midUpDownJoint_Armature","rotation":[0.9912266135215759,0.08335113525390625,0.0998179018497467,-0.02364249899983406],"scale":[0.9999996423721313,1.0000027418136597,1.0000077486038208],"translation":[33.630001068115234,1.765570044517517,0.86149001121521]},{"name":"R_DnLip_J_Armature","rotation":[0,1,0,0],"scale":[1,1,1],"translation":[-33.751930236816406,-4.461730003356934,323.9815673828125]},{"name":"R_Lip_J_Armature","rotation":[0,1,0,0],"scale":[1,1,1],"translation":[-65.32218933105469,-2.6243300437927246,317.7336730957031]},{"name":"R_UpLip_J_Armature","rotation":[0,1,0,0],"scale":[1,1,1],"translation":[-33.75185012817383,2.24780011177063,324.18341064453125]},{"name":"UpLip_J_Armature","rotation":[0,0,0,1],"scale":[1,1,1],"translation":[0.000039999998989515007,2.2463700771331787,324.91827392578125]},{"children":[37],"name":"Tongue_1_J_Armature","rotation":[-0.32864075899124146,0.6260952949523926,0.6260952949523926,0.32864075899124146],"scale":[0.9999980330467224,0.9999980330467224,1],"translation":[-194.18846130371094,7.449709892272949,-68.57958984375]},{"children":[38],"name":"Tongue_2_J_Armature","rotation":[0,0,0,1],"scale":[1,1,1],"translation":[-0.000009999999747378752,21.305320739746094,0]},{"children":[39],"name":"Tongue_3_J_Armature","rotation":[0,0,0,1],"scale":[1,1,1],"translation":[0,24.445459365844727,0]},{"name":"Tongue_4_J_Armature","rotation":[0,0,0,1],"scale":[1,1,1],"translation":[0,18.340980529785156,0]},{"name":"UpTeeth_J_Armature","rotation":[0,-0.4647681713104248,0,0.8854324221611023],"scale":[0.9999980330467224,1,0.9999980330467224],"translation":[-205.9041748046875,28.790409088134766,-60.49449157714844]},{"name":"L_fronttyreJoint_Armature","rotation":[0,-0.4647681713104248,0,0.8854324221611023],"scale":[0.9999980330467224,1,0.9999980330467224],"translation":[-81.65196228027344,67.82273864746094,210.07191467285156]},{"name":"L_reartyreJoint_Armature","rotation":[0,-0.4647681713104248,0,0.8854324221611023],"scale":[0.9999980330467224,1,0.9999980330467224],"translation":[243.68191528320312,67.8231201171875,-10.902179718017578]},{"name":"R_fronttyreJoint_Armature","rotation":[0,-0.4647681713104248,0,0.8854324221611023],"scale":[0.9999980330467224,1,0.9999980330467224],"translation":[-225.6857147216797,67.82273864746094,1.3596500158309937]},{"name":"R_reartyreJoint_Armature","rotation":[0,-0.4647681713104248,0,0.8854324221611023],"scale":[0.9999980330467224,1,0.9999980330467224],"translation":[96.33773040771484,67.8231201171875,-224.4114532470703]},{"matrix":[-0.90631,0,-0.42262000000000005,0,0,1,0,0,0.42262000000000005,0,-0.90631,0,0,0,0.8,1],"name":"Character_Mcqueen_MESH_1"},{"mesh":0,"name":"Character_Mcqueen_MESH_1_0","skin":0},{"mesh":1,"name":"Character_Mcqueen_MESH_1_1","skin":0},{"mesh":2,"name":"Character_Mcqueen_MESH_1_2","skin":0},{"matrix":[-0.90631,0,-0.42262000000000005,0,0,1,0,0,0.42262000000000005,0,-0.90631,0,0,0,0.8,1],"name":"Character_Mcqueen_MESH_0"},{"mesh":3,"name":"Character_Mcqueen_MESH_0_0","skin":0},{"matrix":[-0.90631,0,-0.42262000000000005,0,0,1,0,0,0.42262000000000005,0,-0.90631,0,0,0,1,1],"name":"Character_Mcqueen_MESH_2"},{"mesh":4,"name":"Character_Mcqueen_MESH_2_0","skin":0},{"mesh":5,"name":"Character_Mcqueen_MESH_2_1","skin":0},{"children":[55],"matrix":[-0.08297000000000002,-0.13741000000000003,0.98703,0,0.7591400000000001,0.6329500000000001,0.15193000000000004,0,-0.6456200000000002,0.7619000000000001,0.05180000000000001,0,0,0,0,1],"name":"Sun"},{"name":"Sun"},{"children":[57],"name":"Hemi"},{"name":"Hemi"},{"children":[59],"matrix":[-0.6840900000000002,-0.7277000000000001,0.04966000000000001,0,-0.7286900000000002,0.6848400000000002,-0.0027000000000000006,0,-0.032040000000000006,-0.03803000000000001,-0.99876,0,0,0,0,1],"name":"Hemi.001"},{"name":"Hemi.001"},{"children":[61],"matrix":[0.8625200000000001,-0.48951000000000006,0.12822,0,-0.14682,0.00040000000000000013,0.9891599999999999,0,-0.48426,-0.8720000000000001,-0.07153000000000001,0,0.003210000000000001,-0.021160000000000005,-0.13342,1],"name":"Sun.001"},{"name":"Sun.001"}],"samplers":[{"magFilter":9729,"minFilter":9987,"wrapS":10497,"wrapT":10497}],"scene":0,"scenes":[{"name":"Sketchfab_Scene","nodes":[0]}],"skins":[{"inverseBindMatrices":32,"joints":[5,6,7,8,9,10,11,12,13,14,15,16,17,18,19,20,21,22,23,24,25,26,27,28,29,30,31,32,33,34,35,36,37,38,39,40,41,42,43,44],"skeleton":5}],"textures":[{"sampler":0,"source":0},{"sampler":0,"source":1},{"sampler":0,"source":2},{"sampler":0,"source":3},{"sampler":0,"source":4},{"sampler":0,"source":5},{"sampler":0,"source":6}]}